<?xml version="1.0" encoding="UTF-8" standalone="no"?>
<svg
   xmlns:dc="http://purl.org/dc/elements/1.1/"
   xmlns:cc="http://creativecommons.org/ns#"
   xmlns:rdf="http://www.w3.org/1999/02/22-rdf-syntax-ns#"
   xmlns:svg="http://www.w3.org/2000/svg"
   xmlns="http://www.w3.org/2000/svg"
   xmlns:sodipodi="http://sodipodi.sourceforge.net/DTD/sodipodi-0.dtd"
   xmlns:inkscape="http://www.inkscape.org/namespaces/inkscape"
   width="199.12399"
   height="220.22501"
   viewBox="0 0 159.29919 176.18"
   version="1.1"
   id="svg3336"
   inkscape:version="0.91 r13725"
   sodipodi:docname="fox_cut.svg"
   inkscape:export-filename="C:\Files\Source\Git\brandan.io\public\img\fox\fox_cut.png"
   inkscape:export-xdpi="90"
   inkscape:export-ydpi="90">
  <metadata
     id="metadata3360">
    <rdf:RDF>
      <cc:Work
         rdf:about="">
        <dc:format>image/svg+xml</dc:format>
        <dc:type
           rdf:resource="http://purl.org/dc/dcmitype/StillImage" />
        <dc:title />
      </cc:Work>
    </rdf:RDF>
  </metadata>
  <defs
     id="defs3358">
    <clipPath
       clipPathUnits="userSpaceOnUse"
       id="clipPath3395">
      <rect
         style="fill:#0000ff;fill-rule:evenodd;stroke:#000000;stroke-width:0.67007983px;stroke-linecap:butt;stroke-linejoin:miter;stroke-opacity:1"
         id="rect3397"
         width="193.37637"
         height="193.37637"
         x="413.79025"
         y="187.93488" />
    </clipPath>
  </defs>
  <sodipodi:namedview
     pagecolor="#ffffff"
     bordercolor="#666666"
     borderopacity="1"
     objecttolerance="10"
     gridtolerance="10"
     guidetolerance="10"
     inkscape:pageopacity="0"
     inkscape:pageshadow="2"
     inkscape:window-width="1920"
     inkscape:window-height="1017"
     id="namedview3356"
     showgrid="false"
     inkscape:zoom="2.6462562"
     inkscape:cx="38.106526"
     inkscape:cy="118.3654"
     inkscape:window-x="-8"
     inkscape:window-y="-8"
     inkscape:window-maximized="1"
     inkscape:current-layer="svg3336"
     showborder="true"
     units="px" />
  <path
     style="fill:#ff4c3c"
     d="M 186.77539 0 C 180.45039 0.10000001 174.27695 1.5882812 168.12695 2.9257812 C 165.61445 3.7882813 163.10039 4.6121093 160.58789 5.4746094 C 158.13789 6.5121094 155.65117 7.4874999 153.20117 8.5 C 144.46367 13.05 136.35039 18.799218 129.08789 25.449219 C 124.0129 30.861719 119.60039 36.8875 115.90039 43.3125 C 115.06289 45 114.22695 46.675781 113.37695 48.363281 C 107.62695 62.088282 105.65078 77.51289 109.05078 92.087891 C 112.73828 106.17539 121.45118 118.6125 133.07617 127.3125 C 139.42617 131.875 145.41406 137.26172 148.60156 144.57422 C 148.76406 145.17422 149.07578 146.35 149.23828 146.9375 C 151.83828 157.4875 148.07617 168.08672 148.70117 178.69922 C 150.76367 180.89922 153.25039 182.58711 155.77539 184.22461 C 160.71289 183.46211 165.25195 181.13828 169.12695 178.05078 C 178.12695 171.67578 184.56289 162.4625 190.46289 153.3125 C 191.70039 150.8 192.95078 148.28711 194.23828 145.78711 C 196.81328 139.23711 198.86328 132.32578 198.92578 125.23828 C 199.33828 116.98828 199.32695 108.53828 196.68945 100.61328 C 196.53945 100.02578 196.23906 98.862891 196.10156 98.275391 C 193.83906 93.08789 191.12578 88.138282 188.42578 83.175781 C 183.11328 72.588281 179.21367 61.125782 178.45117 49.238281 C 177.23867 43.788281 177.56367 38.211719 178.57617 32.761719 C 179.22617 21.411718 183.11289 10.650001 186.77539 0 z M 167.75195 15.949219 C 164.58945 31.96172 163.42656 48.674218 167.03906 64.699219 C 167.47656 66.374219 167.91328 68.075781 168.42578 69.738281 C 168.57578 70.325781 168.88906 71.499609 169.03906 72.099609 C 169.66406 73.737109 170.25117 75.4 170.88867 77.0625 C 171.87617 79.6375 172.93945 82.18789 174.06445 84.712891 C 174.38945 85.337891 175.02656 86.587891 175.35156 87.212891 C 178.47656 92.687891 181.51367 98.224218 183.95117 104.07422 C 182.03867 103.42422 180.13906 102.80039 178.22656 102.27539 C 175.71406 101.32539 173.22617 100.38711 170.76367 99.349609 C 158.82617 93.362109 148.47617 83.725001 142.13867 71.9375 C 141.85117 71.3125 141.26289 70.0625 140.96289 69.4375 C 139.93789 67.4125 138.98867 65.34961 138.07617 63.287109 C 132.35117 67.62461 127.62578 73.136718 123.98828 79.324219 C 123.38828 80.849219 122.76445 82.374609 122.18945 83.912109 L 121.47656 83.9375 C 118.50156 75.949999 121.25039 67.562501 122.90039 59.625 C 123.33789 58.3625 123.76328 57.100391 124.17578 55.837891 C 124.47578 55.200391 125.08789 53.912891 125.40039 53.275391 C 125.98789 52.075391 126.57656 50.862109 127.16406 49.662109 C 128.28906 47.512109 129.48945 45.400781 130.81445 43.363281 C 135.55195 35.813281 142.03828 29.55 149.48828 24.6875 C 151.52578 23.3625 153.63906 22.162891 155.78906 21.025391 C 156.41406 20.712891 157.66406 20.1125 158.28906 19.8125 C 161.30156 18.2125 164.43945 16.824219 167.75195 15.949219 z "
     id="path3340"
     transform="scale(0.8,0.79999994)" />
  <path
     d="m 45.030844,32.57 c 4.27,-6.89 10.01,-13.05 17.15,-17.01 -1.63,10.89 -2.03,21.91 -3.26,32.86 -5.94,-3 -10.77,-7.86 -13.86,-13.74 -0.01,-0.53 -0.02,-1.59 -0.03,-2.11 z"
     id="path3344"
     inkscape:connector-curvature="0"
     style="fill:#ff4c3c" />
  <path
     style="fill:#ff4c3c;fill-opacity:1"
     d="M 47.664062 20.425781 C 33.964063 29.963282 22.838281 42.76328 14.113281 56.925781 C 11.375781 61.813282 8.9753906 66.86289 6.6503906 71.962891 C 6.2253906 73.237891 5.7890625 74.525781 5.3515625 75.800781 C 5.1765625 76.388281 4.8382812 77.549219 4.6757812 78.136719 C 2.9007813 83.724219 1.6253907 89.486718 1.0253906 95.324219 C -1.5246093 108.48672 1.0507812 122.02461 4.6757812 134.72461 C 4.8382812 135.29961 5.1507812 136.46328 5.3007812 137.05078 C 6.3757813 139.52578 7.3640625 142.02422 8.4140625 144.51172 C 9.2390625 146.18672 10.075391 147.86211 10.900391 149.53711 C 15.750391 158.41211 21.713672 166.73672 29.076172 173.69922 C 33.063672 177.34922 36.375781 181.93672 41.300781 184.38672 C 43.538281 181.81172 44.976562 178.6875 46.664062 175.75 C 47.826562 173.5 49.025781 171.26211 50.238281 169.03711 C 40.375781 160.87461 32.239453 150.33672 27.814453 138.26172 C 25.289453 129.73672 25.139453 120.7125 27.064453 112.0625 C 27.701953 109.9625 28.388281 107.86211 29.113281 105.78711 C 30.113281 103.42461 31.064062 101.02422 32.039062 98.636719 C 34.939062 99.386719 37.826172 100.18711 40.701172 101.09961 C 44.213672 101.44961 47.676172 102.28789 51.201172 102.65039 C 72.676172 102.80039 95.025391 89.625392 101.90039 68.650391 C 97.075391 69.150391 92.338672 70.599609 87.451172 70.162109 C 80.763672 69.487109 74.113281 67.924219 68.050781 64.949219 C 59.113281 60.524218 52.651563 52.437891 49.039062 43.275391 C 46.689062 35.86289 46.751563 28.063282 47.664062 20.425781 z M 52.84375 72.671875 C 55.448975 72.685547 57.962891 73.285156 59.939453 75.300781 C 60.089453 76.188281 60.413672 77.962109 60.576172 78.849609 C 54.963672 76.674609 48.764063 77.475781 43.039062 78.675781 C 44.476562 76.600781 46.187891 74.712109 48.150391 73.099609 C 49.683203 72.865234 51.280615 72.663672 52.84375 72.671875 z "
     id="path3346"
     transform="scale(0.8,0.79999994)" />
  <path
     d="m 59.270844,83.26 c 1.16,-0.37 2.31,-0.76 3.47,-1.15 0.62,1.18 1.26,2.37 1.91,3.55 2.75,3.96 6.45,7.22 10.83,9.27 3.36,1.39 6.76,2.67 10.16,3.99 0.47,0.11 1.41,0.32 1.88,0.43 2.93,1.29 5.99,2.29 8.98,3.47 2.01,1.01 4.029996,2.01 6.059996,2.99 5.21,2.77 9.15,7.26 11.35,12.73 0.94,3.44 1.58,7.02 0.95,10.59 -0.97,4.77 -0.86,9.67 -1.39,14.49 0.12,4.04 3.87,6.05 7.12,7.42 0.72,0.04 2.17,0.12 2.89,0.16 -5.91,5.55 -11.74,11.56 -14.25,19.49 -0.1,0.48 -0.3,1.45 -0.39,1.93 -0.38,1.17 -0.74,2.34 -1.08,3.52 -2.64,-0.01 -5.28,0 -7.909996,0 0.599996,-4.88 1.259996,-9.77 2.399996,-14.55 0.37,-1 0.73,-2 1.09,-3 0.33,-1.04 0.66,-2.07 1,-3.1 -3.54,0.93 -7.209996,0.68 -10.819996,0.64 -3.22,-1.44 -6.08,-3.55 -8.13,-6.43 -0.43,-3.19 -0.55,-6.41 -0.29,-9.61 0.75,-4.16 3.2,-7.74 5.75,-11.01 -1.42,0.58 -2.84,1.16 -4.24,1.77 -19.03,7.9 -35.49,22.02 -45.89,39.84 -1.03,1.79 -2.03,3.61 -3,5.45 -2.63,0 -5.25,0 -7.87,0 0.96,-4.82 1.36,-9.75 2.91,-14.43 1.96,-6.44 5.33,-12.29 8.56,-18.14 4.41,-7.04 8.38,-14.35 11.52,-22.04 0.09,-0.47 0.29,-1.42 0.38,-1.89 0.53,-1.34 1.03,-2.69 1.57,-4.03 0.55,-2.31 1.12,-4.61 1.6,-6.94 1.3,-7.46 2.61,-15.17 0.82,-22.67 -0.47,-1.35 1.44,-1.84 2.06,-2.74 z"
     id="path3350"
     inkscape:connector-curvature="0"
     style="fill:#ff4c3c" />
  <path
     d="m 52.160844,162.57 c 2.85,-2.89 5.46,-6.01 8.35,-8.87 3.02,3.94 5.5,8.26 7.34,12.88 0.87,3.11 1.36,6.31 1.29,9.56 -2.35,0 -4.7,0.01 -7.05,0.04 -0.8,-1.18 -1.6,-2.36 -2.33,-3.58 -2.17,-3.6 -5,-6.74 -7.6,-10.03 z"
     id="path3352"
     inkscape:connector-curvature="0"
     style="fill:#ff4c3c" />
  <path
     d="m 81.610844,154.79 c 2.3,1.62 4.53,3.35 7.04,4.65 1.09,0.58 2.19,1.17 3.28,1.78 -4.04,4.76 -8.71,9.13 -11.34,14.92 -2.61,0 -5.22,0 -7.82,-0.01 0.75,-2.88 1.62,-5.72 2.48,-8.56 1.92,-4.36 4.18,-8.55 6.36,-12.78 z"
     id="path3354"
     inkscape:connector-curvature="0"
     style="fill:#ff4c3c" />
</svg>
