<?xml version="1.0" encoding="UTF-8" standalone="no"?>
<svg
   xmlns:dc="http://purl.org/dc/elements/1.1/"
   xmlns:cc="http://creativecommons.org/ns#"
   xmlns:rdf="http://www.w3.org/1999/02/22-rdf-syntax-ns#"
   xmlns:svg="http://www.w3.org/2000/svg"
   xmlns="http://www.w3.org/2000/svg"
   xmlns:sodipodi="http://sodipodi.sourceforge.net/DTD/sodipodi-0.dtd"
   xmlns:inkscape="http://www.inkscape.org/namespaces/inkscape"
   width="199.12399"
   height="220.22501"
   viewBox="0 0 159.29919 176.18"
   version="1.1"
   id="svg3336"
   inkscape:version="0.91 r13725"
   sodipodi:docname="fox.svg"
   inkscape:export-filename="C:\Files\Source\Git\Freelancer\img\fox\fox.png"
   inkscape:export-xdpi="90"
   inkscape:export-ydpi="90">
  <metadata
     id="metadata3360">
    <rdf:RDF>
      <cc:Work
         rdf:about="">
        <dc:format>image/svg+xml</dc:format>
        <dc:type
           rdf:resource="http://purl.org/dc/dcmitype/StillImage" />
        <dc:title></dc:title>
      </cc:Work>
    </rdf:RDF>
  </metadata>
  <defs
     id="defs3358">
    <clipPath
       clipPathUnits="userSpaceOnUse"
       id="clipPath3395">
      <rect
         style="fill:#0000ff;fill-rule:evenodd;stroke:#000000;stroke-width:0.67007983px;stroke-linecap:butt;stroke-linejoin:miter;stroke-opacity:1"
         id="rect3397"
         width="193.37637"
         height="193.37637"
         x="413.79025"
         y="187.93488" />
    </clipPath>
  </defs>
  <sodipodi:namedview
     pagecolor="#ffffff"
     bordercolor="#666666"
     borderopacity="1"
     objecttolerance="10"
     gridtolerance="10"
     guidetolerance="10"
     inkscape:pageopacity="0"
     inkscape:pageshadow="2"
     inkscape:window-width="890"
     inkscape:window-height="557"
     id="namedview3356"
     showgrid="false"
     inkscape:zoom="0.33078203"
     inkscape:cx="400.01445"
     inkscape:cy="1.6496142"
     inkscape:window-x="2273"
     inkscape:window-y="667"
     inkscape:window-maximized="0"
     inkscape:current-layer="svg3336"
     showborder="true"
     units="px" />
  <path
     d="m 134.50084,2.34 c 4.92,-1.07 9.86,-2.26 14.92,-2.34 -2.93,8.52 -6.04,17.13 -6.56,26.21 -0.81,4.36 -1.07,8.82 -0.1,13.18 0.61,9.51 3.73,18.68 7.98,27.15 2.16,3.97 4.33,7.93 6.14,12.08 0.11,0.47 0.35,1.4 0.47,1.87 2.11,6.34 2.12,13.1 1.79,19.7 -0.05,5.67 -1.69,11.2 -3.75,16.44 -1.03,2 -2.03,4.01 -3.02,6.02 -4.72,7.32 -9.87,14.69 -17.07,19.79 -3.1,2.47 -6.73,4.33 -10.68,4.94 -2.02,-1.31 -4.01,-2.66 -5.66,-4.42 -0.5,-8.49 2.51,-16.97 0.43,-25.41 -0.13,-0.47 -0.38,-1.41 -0.51,-1.89 -2.55,-5.85 -7.34,-10.16 -12.42,-13.81 -9.299996,-6.96 -16.269996,-16.91 -19.219996,-28.18 -2.72,-11.66 -1.14,-24 3.46,-34.98 0.68,-1.35 1.35,-2.69 2.02,-4.04 2.96,-5.14 6.49,-9.96 10.549996,-14.29 5.81,-5.32 12.3,-9.92 19.29,-13.56 1.96,-0.81 3.95,-1.59 5.91,-2.42 2.01,-0.69 4.02,-1.35 6.03,-2.04 z"
     id="path3340"
     inkscape:connector-curvature="0"
     style="fill:#ff4c3c" />
  <path
     d="m 126.63084,15.85 c 2.41,-1.28 4.92,-2.39 7.57,-3.09 -2.53,12.81 -3.46,26.18 -0.57,39 0.35,1.34 0.7,2.7 1.11,4.03 0.12,0.47 0.37,1.41 0.49,1.89 0.5,1.31 0.97,2.64 1.48,3.97 0.79,2.06 1.64,4.1 2.54,6.12 0.26,0.5 0.77,1.5 1.03,2 2.5,4.38 4.93,8.81 6.88,13.49 -1.53,-0.52 -3.05,-1.02 -4.58,-1.44 -2.01,-0.76 -4,-1.51 -5.97,-2.34 -9.55,-4.79 -17.83,-12.5 -22.9,-21.93 -0.23,-0.5 -0.7,-1.5 -0.94,-2 -0.82,-1.62 -1.58,-3.27 -2.31,-4.92 -4.58,3.47 -8.36,7.88 -11.269996,12.83 -0.48,1.22 -0.98,2.44 -1.44,3.67 l -0.57,0.02 c -2.38,-6.39 -0.18,-13.1 1.14,-19.45 0.35,-1.01 0.69,-2.02 1.02,-3.03 0.24,-0.51 0.729996,-1.54 0.979996,-2.05 0.47,-0.96 0.94,-1.93 1.41,-2.89 0.9,-1.72 1.86,-3.41 2.92,-5.04 3.79,-6.04 8.98,-11.05 14.94,-14.94 1.63,-1.06 3.32,-2.02 5.04,-2.93 0.5,-0.25 1.5,-0.73 2,-0.97 z"
     id="path3342"
     style="fill:#f7f8fa;fill-opacity:1"
     inkscape:connector-curvature="0" />
  <path
     d="m 45.030844,32.57 c 4.27,-6.89 10.01,-13.05 17.15,-17.01 -1.63,10.89 -2.03,21.91 -3.26,32.86 -5.94,-3 -10.77,-7.86 -13.86,-13.74 -0.01,-0.53 -0.02,-1.59 -0.03,-2.11 z"
     id="path3344"
     inkscape:connector-curvature="0"
     style="fill:#ff4c3c" />
  <path
     d="m 11.290844,45.54 c 6.98,-11.33 15.88,-21.57 26.84,-29.2 -0.73,6.11 -0.78,12.35 1.1,18.28 2.89,7.33 8.06,13.8 15.21,17.34 4.85,2.38 10.17,3.63 15.52,4.17 3.91,0.35 7.7,-0.81 11.56,-1.21 -5.5,16.78 -23.38,27.32 -40.56,27.2 -2.82,-0.29 -5.59,-0.96 -8.4,-1.24 -2.3,-0.73 -4.61,-1.37 -6.93,-1.97 -0.78,1.91 -1.54,3.83 -2.34,5.72 -0.58,1.66 -1.13,3.34 -1.64,5.02 -1.54,6.92 -1.42,14.14 0.6,20.96 3.54,9.66 10.05,18.09 17.94,24.62 -0.97,1.78 -1.93,3.57 -2.86,5.37 -1.35,2.35 -2.5,4.85 -4.29,6.91 -3.94,-1.96 -6.59,-5.63 -9.78,-8.55 -5.89,-5.57 -10.66,-12.23 -14.5400004,-19.33 -0.66,-1.34 -1.33,-2.68 -1.99,-4.02 -0.84,-1.99 -1.63,-3.99 -2.49,-5.97 -0.12,-0.47 -0.37,-1.4 -0.5,-1.86 -2.90000004,-10.16 -4.96,-20.99 -2.92000004,-31.52 0.48000004,-4.67 1.50000004,-9.28 2.92000004,-13.75 0.13,-0.47 0.4,-1.4 0.54,-1.87 0.35,-1.02 0.7,-2.05 1.04,-3.07 1.86,-4.08 3.78,-8.12 5.9700004,-12.03 z"
     id="path3346"
     inkscape:connector-curvature="0"
     style="fill:#ff4c3c" />
  <path
     d="m 38.520844,58.48 c 3.27,-0.5 6.9,-0.82 9.43,1.76 0.12,0.71 0.38,2.13 0.51,2.84 -4.49,-1.74 -9.45,-1.1 -14.03,-0.14 1.15,-1.66 2.52,-3.17 4.09,-4.46 z"
     id="path3348"
     style="fill:#f7f8fa;fill-opacity:1"
     inkscape:connector-curvature="0" />
  <path
     d="m 59.270844,83.26 c 1.16,-0.37 2.31,-0.76 3.47,-1.15 0.62,1.18 1.26,2.37 1.91,3.55 2.75,3.96 6.45,7.22 10.83,9.27 3.36,1.39 6.76,2.67 10.16,3.99 0.47,0.11 1.41,0.32 1.88,0.43 2.93,1.29 5.99,2.29 8.98,3.47 2.01,1.01 4.029996,2.01 6.059996,2.99 5.21,2.77 9.15,7.26 11.35,12.73 0.94,3.44 1.58,7.02 0.95,10.59 -0.97,4.77 -0.86,9.67 -1.39,14.49 0.12,4.04 3.87,6.05 7.12,7.42 0.72,0.04 2.17,0.12 2.89,0.16 -5.91,5.55 -11.74,11.56 -14.25,19.49 -0.1,0.48 -0.3,1.45 -0.39,1.93 -0.38,1.17 -0.74,2.34 -1.08,3.52 -2.64,-0.01 -5.28,0 -7.909996,0 0.599996,-4.88 1.259996,-9.77 2.399996,-14.55 0.37,-1 0.73,-2 1.09,-3 0.33,-1.04 0.66,-2.07 1,-3.1 -3.54,0.93 -7.209996,0.68 -10.819996,0.64 -3.22,-1.44 -6.08,-3.55 -8.13,-6.43 -0.43,-3.19 -0.55,-6.41 -0.29,-9.61 0.75,-4.16 3.2,-7.74 5.75,-11.01 -1.42,0.58 -2.84,1.16 -4.24,1.77 -19.03,7.9 -35.49,22.02 -45.89,39.84 -1.03,1.79 -2.03,3.61 -3,5.45 -2.63,0 -5.25,0 -7.87,0 0.96,-4.82 1.36,-9.75 2.91,-14.43 1.96,-6.44 5.33,-12.29 8.56,-18.14 4.41,-7.04 8.38,-14.35 11.52,-22.04 0.09,-0.47 0.29,-1.42 0.38,-1.89 0.53,-1.34 1.03,-2.69 1.57,-4.03 0.55,-2.31 1.12,-4.61 1.6,-6.94 1.3,-7.46 2.61,-15.17 0.82,-22.67 -0.47,-1.35 1.44,-1.84 2.06,-2.74 z"
     id="path3350"
     inkscape:connector-curvature="0"
     style="fill:#ff4c3c" />
  <path
     d="m 52.160844,162.57 c 2.85,-2.89 5.46,-6.01 8.35,-8.87 3.02,3.94 5.5,8.26 7.34,12.88 0.87,3.11 1.36,6.31 1.29,9.56 -2.35,0 -4.7,0.01 -7.05,0.04 -0.8,-1.18 -1.6,-2.36 -2.33,-3.58 -2.17,-3.6 -5,-6.74 -7.6,-10.03 z"
     id="path3352"
     inkscape:connector-curvature="0"
     style="fill:#ff4c3c" />
  <path
     d="m 81.610844,154.79 c 2.3,1.62 4.53,3.35 7.04,4.65 1.09,0.58 2.19,1.17 3.28,1.78 -4.04,4.76 -8.71,9.13 -11.34,14.92 -2.61,0 -5.22,0 -7.82,-0.01 0.75,-2.88 1.62,-5.72 2.48,-8.56 1.92,-4.36 4.18,-8.55 6.36,-12.78 z"
     id="path3354"
     inkscape:connector-curvature="0"
     style="fill:#ff4c3c" />
</svg>
