<?xml version="1.0" standalone="no"?>
<!DOCTYPE svg PUBLIC "-//W3C//DTD SVG 20010904//EN"
 "http://www.w3.org/TR/2001/REC-SVG-20010904/DTD/svg10.dtd">
<svg version="1.0" xmlns="http://www.w3.org/2000/svg"
 width="880.000000pt" height="880.000000pt" viewBox="0 0 880.000000 880.000000"
 preserveAspectRatio="xMidYMid meet">
<metadata>
Created by potrace 1.11, written by Peter Selinger 2001-2013
</metadata>
<g transform="translate(0.000000,880.000000) scale(0.100000,-0.100000)"
fill="#000000" stroke="none">
<path d="M7768 8795 c-2 -2 -32 -5 -68 -9 -36 -3 -76 -8 -90 -10 -14 -3 -41
-7 -60 -10 -19 -3 -45 -8 -56 -10 -12 -2 -39 -7 -60 -10 -22 -4 -46 -8 -54
-11 -8 -2 -26 -6 -40 -9 -14 -3 -36 -8 -50 -11 -14 -3 -45 -10 -70 -15 -25 -5
-54 -12 -65 -14 -40 -10 -342 -114 -385 -133 -25 -11 -76 -33 -115 -48 -80
-31 -178 -77 -185 -86 -3 -4 -32 -21 -65 -38 -72 -37 -236 -139 -265 -163 -11
-10 -23 -18 -26 -18 -6 0 -122 -80 -144 -100 -9 -8 -27 -22 -39 -30 -58 -38
-272 -216 -344 -286 -73 -70 -273 -319 -362 -450 -123 -182 -261 -431 -290
-524 -4 -14 -11 -29 -15 -35 -10 -13 -86 -251 -110 -345 -15 -56 -14 -53 -39
-180 -27 -139 -42 -256 -46 -357 -2 -46 -5 -86 -7 -90 -3 -7 -2 -172 2 -183 0
-3 3 -48 5 -100 3 -52 7 -106 10 -119 2 -14 9 -59 15 -100 11 -79 17 -116 20
-116 2 0 10 -33 14 -60 2 -11 16 -60 32 -110 15 -49 29 -92 29 -95 2 -8 14
-37 57 -140 43 -104 131 -274 157 -304 9 -10 15 -20 13 -22 -3 -5 108 -172
152 -229 79 -101 151 -181 257 -285 104 -102 141 -133 318 -270 180 -138 269
-220 368 -339 76 -92 83 -100 83 -108 0 -3 10 -20 23 -37 34 -46 97 -172 102
-203 3 -16 9 -48 16 -73 32 -132 41 -314 24 -520 -4 -52 -8 -105 -8 -117 -1
-13 -3 -23 -6 -23 -4 0 -6 -19 -7 -43 0 -23 -3 -71 -7 -107 -16 -152 -21 -241
-20 -338 l0 -104 45 -41 c60 -57 97 -87 106 -87 4 -1 23 -14 42 -30 19 -17 38
-30 43 -30 5 0 15 -7 23 -15 16 -15 70 -14 116 4 13 5 28 9 33 10 38 5 204 77
254 110 98 66 126 86 129 93 2 4 8 8 13 8 6 0 24 13 42 30 18 16 35 30 38 30
6 0 13 6 107 87 56 49 168 163 223 227 19 21 44 49 57 62 12 13 22 27 22 31 0
5 9 15 20 23 11 8 20 18 20 23 0 5 7 15 15 23 8 9 36 46 62 82 26 37 50 69 53
72 3 3 49 70 102 150 100 149 236 405 277 520 12 36 34 97 47 135 26 71 70
233 80 289 3 17 7 45 10 61 12 64 14 83 21 185 10 138 10 543 1 645 -12 130
-28 217 -65 350 -14 50 -28 106 -32 125 -12 54 -107 254 -226 475 -111 204
-197 386 -259 547 -85 219 -146 424 -181 608 -3 14 -7 34 -9 45 -2 11 -9 52
-15 90 -10 65 -14 96 -26 233 -3 30 -7 57 -10 62 -23 38 -23 399 0 510 3 14 8
43 10 65 3 22 8 63 11 90 4 28 8 68 9 90 1 22 6 56 9 75 4 19 9 51 11 70 3 19
9 53 14 75 5 22 12 54 15 70 2 17 14 65 25 107 12 42 22 85 24 95 2 10 12 45
22 78 11 33 19 62 20 65 0 3 12 39 25 80 13 41 25 77 25 80 4 22 110 328 117
337 5 6 5 13 1 16 -8 5 -110 6 -115 2z m-647 -656 c-2 -8 -5 -25 -6 -39 -2
-14 -6 -38 -9 -55 -3 -16 -8 -39 -10 -50 -4 -23 -13 -83 -21 -140 -3 -23 -7
-50 -9 -60 -7 -36 -17 -119 -22 -175 -3 -30 -7 -71 -9 -90 -26 -231 -26 -743
0 -930 2 -14 6 -47 9 -75 14 -115 52 -304 81 -405 2 -8 18 -66 35 -128 17 -63
39 -132 50 -155 11 -22 20 -47 20 -54 0 -7 4 -21 9 -31 6 -9 22 -48 36 -87 15
-38 33 -85 41 -102 8 -18 21 -50 30 -70 28 -66 115 -237 130 -254 8 -8 14 -23
14 -31 0 -9 3 -18 8 -20 8 -4 43 -67 109 -198 27 -52 53 -98 58 -102 6 -4 7
-8 2 -8 -4 0 -1 -10 7 -22 18 -28 98 -210 94 -213 -6 -5 -346 113 -442 153
-54 23 -135 62 -179 87 -44 25 -84 45 -88 45 -5 0 -9 4 -9 8 0 5 -12 15 -27
23 -16 8 -44 25 -64 39 -20 14 -47 32 -59 40 -27 18 -160 120 -176 135 -6 5
-44 39 -84 75 -41 36 -88 81 -106 100 -18 19 -56 59 -84 89 -27 30 -60 67 -73
83 -12 16 -32 41 -45 56 -72 83 -262 396 -262 431 0 6 -4 11 -10 11 -5 0 -10
6 -10 13 0 6 -20 53 -45 102 -25 50 -45 95 -45 101 0 6 -6 17 -14 23 -11 9
-16 9 -23 -1 -4 -7 -21 -22 -38 -32 -63 -41 -305 -297 -365 -386 -8 -12 -19
-28 -25 -34 -17 -20 -75 -106 -75 -112 0 -3 -9 -18 -20 -34 -11 -15 -34 -65
-51 -111 -18 -46 -36 -90 -42 -97 -17 -21 -34 4 -54 81 -14 57 -18 106 -17
237 1 91 4 181 8 200 16 91 27 147 32 170 3 14 7 34 9 45 8 37 45 200 50 219
28 116 166 419 252 554 18 29 33 55 33 58 0 2 5 10 11 17 5 7 19 26 29 42 11
17 25 39 32 50 78 121 160 218 304 360 120 118 202 188 299 256 27 18 58 42
69 52 11 9 26 17 33 17 7 0 13 4 13 9 0 5 10 13 23 17 12 4 24 10 27 13 7 10
146 88 169 96 12 3 21 11 21 16 0 5 4 9 9 9 5 0 65 27 134 60 129 63 305 131
322 126 6 -2 8 -10 6 -17z"/>
<path d="M3505 8008 c-11 -6 -22 -14 -25 -18 -3 -3 -12 -10 -20 -13 -29 -14
-145 -92 -169 -115 -8 -7 -24 -20 -38 -29 -55 -36 -235 -210 -308 -298 -22
-26 -45 -53 -50 -59 -33 -37 -119 -153 -165 -223 -48 -72 -53 -87 -53 -132 1
-48 6 -62 64 -161 8 -14 17 -27 20 -30 3 -3 19 -25 34 -50 16 -25 33 -49 40
-55 6 -5 27 -30 47 -55 67 -85 208 -212 321 -289 84 -57 167 -101 168 -88 0 7
2 21 3 32 3 20 15 137 21 212 2 21 6 63 9 93 9 92 25 283 32 375 2 33 6 80 8
104 5 44 12 116 22 226 3 33 7 78 8 100 5 58 16 166 21 195 2 14 7 54 11 90 3
36 8 74 10 85 7 33 16 115 12 115 -2 0 -12 -6 -23 -12z"/>
<path d="M2309 7967 c-9 -7 -29 -22 -45 -35 -16 -12 -58 -44 -94 -70 -35 -26
-73 -56 -85 -67 -11 -11 -40 -36 -65 -55 -145 -114 -421 -395 -588 -600 -20
-25 -40 -46 -44 -48 -5 -2 -8 -10 -8 -17 0 -7 -4 -15 -9 -17 -9 -3 -129 -161
-201 -264 -113 -162 -275 -436 -329 -559 -5 -11 -31 -67 -59 -125 -71 -150
-86 -186 -115 -270 -33 -97 -105 -345 -112 -389 -3 -19 -10 -42 -16 -52 -5
-11 -8 -19 -5 -19 3 0 0 -15 -5 -32 -5 -18 -12 -53 -15 -77 -3 -25 -7 -47 -9
-51 -2 -3 -6 -24 -10 -47 -3 -23 -8 -57 -11 -75 -2 -18 -7 -51 -9 -74 -2 -22
-7 -56 -11 -75 -3 -19 -8 -47 -10 -64 -2 -16 -7 -57 -11 -90 -17 -131 -7 -515
17 -655 5 -30 11 -76 15 -102 3 -26 7 -53 10 -60 2 -7 7 -30 10 -51 3 -21 14
-79 26 -130 12 -51 23 -103 26 -117 3 -14 16 -65 30 -115 13 -49 32 -122 42
-160 11 -39 35 -108 54 -155 19 -47 49 -120 67 -163 67 -164 217 -435 327
-594 24 -35 43 -67 43 -72 0 -5 3 -11 8 -13 4 -1 46 -55 93 -118 140 -186 186
-237 472 -522 199 -199 324 -306 375 -322 27 -9 38 1 91 85 22 35 44 69 48 75
9 12 19 29 59 104 16 30 33 58 39 62 5 4 7 8 2 8 -4 0 3 17 16 38 13 20 40 71
61 112 21 41 43 79 47 85 17 17 9 36 -28 68 -152 131 -333 320 -438 457 -27
36 -53 67 -57 68 -4 2 -8 9 -8 16 0 7 -8 21 -18 32 -42 45 -160 241 -220 364
-57 118 -102 220 -96 220 3 0 0 9 -6 21 -11 19 -32 94 -44 151 -3 12 -7 32 -9
43 -60 270 -44 695 33 927 12 35 23 70 25 78 6 26 73 207 84 226 6 11 23 53
40 94 31 81 30 80 101 60 224 -64 290 -82 320 -85 19 -2 37 -5 40 -6 3 -1 8
-1 11 -1 3 1 64 -10 135 -23 156 -28 372 -29 534 0 127 22 244 50 336 80 59
19 113 35 120 35 8 0 14 4 14 8 0 5 18 14 40 21 49 15 284 131 288 143 2 4 8
8 13 8 16 0 158 96 244 165 135 108 290 267 365 376 63 89 100 148 100 158 0
5 4 11 8 13 7 3 101 188 118 233 20 55 29 99 18 93 -5 -4 -38 -9 -74 -13 -36
-4 -68 -9 -72 -11 -3 -2 -27 -7 -51 -9 -25 -3 -56 -8 -68 -11 -78 -16 -296
-23 -344 -11 -11 2 -51 8 -90 12 -38 4 -72 8 -75 10 -3 2 -21 6 -40 9 -20 3
-87 19 -151 35 -102 26 -134 36 -214 67 -11 4 -22 8 -25 9 -3 1 -27 12 -55 24
-251 111 -418 247 -618 501 -87 110 -225 388 -241 485 -1 6 -5 16 -9 23 -5 6
-6 12 -3 12 2 0 -2 26 -9 58 -8 32 -15 81 -17 110 -2 28 -6 52 -9 52 -8 0 -4
400 5 498 4 39 5 72 4 72 -2 0 -10 -6 -19 -13z m357 -2087 c105 -34 164 -79
164 -124 0 -32 0 -30 10 -66 9 -32 -2 -48 -23 -32 -11 9 -69 24 -112 28 -11 2
-31 5 -45 9 -30 7 -254 8 -278 1 -9 -3 -38 -7 -63 -10 -25 -3 -66 -9 -90 -15
-65 -13 -82 -11 -66 8 42 54 58 71 107 121 76 77 82 81 141 86 29 3 54 6 56 8
8 8 165 -3 199 -14z"/>
<path d="M3474 4670 c-57 -19 -98 -40 -133 -70 -28 -24 -52 -47 -52 -52 -5
-31 -4 -57 3 -83 25 -100 31 -177 31 -375 0 -151 -7 -265 -19 -330 -2 -14 -7
-43 -9 -65 -13 -103 -32 -220 -35 -220 -1 0 -4 -16 -6 -35 -4 -41 -9 -69 -23
-125 -5 -22 -13 -55 -16 -74 -3 -19 -8 -37 -10 -41 -2 -4 -7 -21 -10 -39 -12
-71 -34 -149 -54 -194 -11 -26 -21 -51 -22 -55 -2 -10 -7 -23 -21 -57 -6 -16
-13 -37 -14 -45 -17 -93 -84 -252 -222 -525 -95 -187 -225 -423 -263 -476 -10
-15 -19 -29 -19 -32 0 -3 -22 -41 -48 -84 -27 -43 -72 -122 -101 -175 -29 -54
-57 -100 -62 -104 -5 -3 -9 -13 -9 -23 0 -9 -6 -23 -12 -30 -7 -6 -13 -15 -13
-19 0 -4 -19 -41 -42 -82 -23 -41 -50 -95 -61 -120 -11 -25 -34 -76 -52 -115
-45 -97 -114 -288 -136 -374 -23 -92 -37 -149 -39 -161 -2 -8 -4 -15 -5 -15
-1 0 -3 -16 -5 -35 -3 -19 -7 -46 -10 -60 -3 -14 -8 -41 -11 -60 -3 -19 -7
-46 -10 -60 -2 -14 -7 -41 -10 -60 -2 -19 -7 -46 -10 -60 -11 -57 -13 -69 -18
-103 l-6 -35 199 0 198 0 13 34 c8 19 17 34 22 34 4 0 8 4 8 10 0 5 20 45 43
87 24 43 56 101 72 128 43 78 230 358 248 374 10 7 17 19 17 26 0 8 3 15 8 17
4 1 41 46 82 98 41 52 79 100 85 106 5 6 32 37 60 70 95 112 415 426 530 519
21 17 45 37 55 45 38 32 91 73 176 135 49 36 97 72 107 80 9 8 19 15 22 15 2
0 39 24 82 53 43 29 119 77 168 107 50 30 93 58 97 64 4 6 8 8 8 3 0 -4 17 3
38 16 69 43 336 173 492 240 201 85 210 89 210 77 0 -6 -4 -10 -8 -10 -5 0
-26 -26 -48 -57 -21 -32 -45 -64 -52 -71 -11 -13 -116 -201 -117 -212 0 -3 -7
-16 -15 -30 -7 -14 -13 -27 -12 -30 1 -3 -2 -18 -8 -35 -20 -63 -23 -95 -24
-265 0 -185 8 -290 27 -324 22 -38 159 -166 225 -210 143 -94 152 -96 330 -96
184 1 246 5 345 26 17 4 27 1 27 -6 0 -13 -64 -211 -79 -245 -15 -32 -20 -53
-37 -134 -29 -141 -40 -203 -59 -336 -2 -11 -6 -42 -10 -70 -8 -65 -14 -107
-21 -152 -14 -88 -29 -81 191 -81 l194 0 17 57 c10 31 19 61 21 66 1 6 11 48
22 93 23 98 29 116 89 242 37 79 133 242 152 260 3 3 25 32 50 65 24 33 51 68
60 77 8 9 40 45 70 79 30 35 111 118 179 186 l125 123 -55 2 c-29 0 -61 1 -69
0 -8 0 -39 11 -70 26 -30 15 -57 27 -60 27 -3 0 -25 13 -49 29 -96 61 -173
153 -188 223 -8 35 -7 127 1 213 3 36 8 99 11 140 10 175 32 386 41 401 7 11
17 131 17 189 -1 85 -11 173 -29 250 -3 14 -8 39 -11 55 -6 44 -32 111 -76
195 -36 68 -92 158 -107 170 -3 3 -16 19 -29 35 -96 125 -255 252 -417 331
-43 21 -80 42 -82 46 -2 5 -9 8 -15 8 -7 0 -48 17 -92 39 -73 35 -143 65 -205
86 -3 1 -14 5 -25 10 -139 55 -327 125 -339 125 -14 0 -160 51 -201 70 -11 5
-58 23 -105 41 -47 17 -89 35 -95 39 -5 3 -39 17 -75 30 -71 25 -177 79 -227
116 -17 13 -35 24 -38 24 -4 0 -12 6 -20 13 -7 6 -28 23 -47 37 -67 49 -217
210 -269 289 -30 45 -54 86 -54 91 0 5 -6 15 -12 22 -7 6 -13 17 -13 23 0 5
-8 20 -18 31 l-17 22 -81 -28z"/>
<path d="M3380 1050 c-36 -37 -105 -111 -155 -165 -49 -54 -111 -121 -137
-148 -27 -28 -48 -54 -48 -58 0 -4 40 -56 88 -116 48 -59 108 -135 132 -168
25 -33 50 -65 55 -72 23 -29 31 -39 44 -65 8 -16 18 -28 23 -28 4 0 8 -6 9
-12 0 -7 31 -58 68 -113 l67 -100 177 -2 177 -2 -5 102 c-2 56 -6 113 -8 127
-3 14 -8 48 -12 75 -4 28 -9 57 -11 65 -17 75 -28 109 -46 148 -11 26 -21 51
-22 57 -1 5 -7 19 -13 30 -6 11 -39 74 -73 140 -34 66 -66 121 -71 123 -5 2
-9 8 -9 13 0 4 -20 39 -45 76 -25 38 -58 87 -73 110 -15 23 -32 44 -37 46 -6
3 -40 -26 -75 -63z"/>
<path d="M4436 942 c-32 -64 -75 -149 -95 -187 -20 -39 -62 -126 -95 -195 -53
-112 -69 -151 -81 -200 -2 -8 -10 -36 -18 -62 -8 -27 -12 -48 -9 -48 4 0 2 -4
-3 -8 -9 -6 -36 -92 -51 -159 -2 -12 -9 -34 -14 -47 -5 -14 -6 -27 -2 -29 4
-2 91 -5 195 -5 l187 -1 26 52 c15 29 29 54 33 57 3 3 16 24 29 48 40 74 275
370 351 442 31 30 121 139 121 147 0 4 -10 13 -23 19 -108 51 -363 205 -387
233 -11 13 -87 61 -96 61 -5 0 -35 -53 -68 -118z"/>
</g>
</svg>
