<?xml version="1.0" standalone="no"?>
<!DOCTYPE svg PUBLIC "-//W3C//DTD SVG 20010904//EN"
 "http://www.w3.org/TR/2001/REC-SVG-20010904/DTD/svg10.dtd">
<svg version="1.0" xmlns="http://www.w3.org/2000/svg"
 width="220.000000pt" height="220.000000pt" viewBox="0 0 220.000000 220.000000"
 preserveAspectRatio="xMidYMid meet">
<metadata>
Created by potrace 1.11, written by Peter Selinger 2001-2013
</metadata>
<g transform="translate(0.000000,220.000000) scale(0.100000,-0.100000)"
fill="#000000" stroke="none">
<path d="M1833 2179 c-192 -43 -383 -162 -495 -309 -104 -137 -158 -303 -152
-468 6 -184 95 -347 259 -477 69 -55 120 -110 142 -153 18 -37 23 -145 14
-287 -5 -71 -5 -71 34 -101 35 -27 35 -27 79 -10 91 35 175 113 265 248 91
134 124 245 120 401 -3 117 -21 181 -88 314 -66 133 -95 216 -111 318 -11 70
-14 178 -6 225 3 14 7 43 11 64 8 57 15 83 41 164 13 40 24 77 24 82 0 13 -40
10 -137 -11z"/>
<path d="M844 1978 c-84 -62 -175 -170 -170 -199 5 -31 37 -77 79 -116 43 -40
85 -68 92 -61 2 2 6 37 10 78 21 242 26 294 31 301 11 19 -17 17 -42 -3z"/>
<path d="M525 1949 c-214 -176 -363 -427 -403 -679 -3 -25 -6 -94 -5 -155 1
-178 52 -338 159 -502 45 -69 228 -257 245 -251 6 2 29 36 51 75 l39 72 -56
58 c-70 70 -107 123 -148 211 -26 56 -32 82 -35 159 -4 80 -1 105 22 177 14
47 31 88 36 91 6 4 39 0 73 -9 89 -22 134 -25 201 -15 174 28 320 127 397 272
l31 58 -84 -7 c-190 -15 -359 75 -433 231 -25 53 -28 72 -29 157 -1 54 -3 98
-6 98 -3 0 -28 -18 -55 -41z"/>
<path d="M860 1163 c-29 -10 -37 -31 -30 -78 25 -162 -40 -399 -170 -618 -59
-100 -124 -230 -139 -277 -16 -51 -39 -179 -33 -185 3 -3 25 -5 48 -5 43 0 43
1 84 70 126 215 308 374 573 498 l47 22 -32 -58 c-29 -50 -33 -66 -33 -129 0
-65 3 -74 29 -102 40 -41 75 -53 145 -49 34 1 61 0 61 -3 0 -4 -7 -26 -15 -50
-9 -24 -18 -55 -19 -69 -2 -14 -7 -49 -11 -77 l-7 -53 49 0 50 0 16 58 c19 67
57 129 126 199 l50 52 -29 6 c-16 4 -44 20 -61 36 l-32 30 8 97 c17 201 14
226 -38 304 -38 57 -113 108 -220 148 -45 17 -119 44 -163 61 -90 34 -160 84
-195 142 -24 37 -30 40 -59 30z"/>
<path d="M813 226 l-51 -53 59 -79 c32 -43 59 -82 59 -86 0 -13 88 -9 92 4 14
40 -37 178 -90 245 l-17 22 -52 -53z"/>
<path d="M1082 173 c-22 -49 -43 -99 -47 -113 -4 -14 -9 -33 -11 -42 -5 -15 2
-18 43 -18 46 0 49 2 78 48 16 26 32 49 35 52 4 3 23 23 43 46 l37 41 -28 14
c-15 7 -41 24 -58 36 -17 13 -35 23 -41 23 -5 0 -28 -39 -51 -87z"/>
</g>
</svg>
